<svg width="68" height="68" viewBox="0 0 68 68" fill="none" xmlns="http://www.w3.org/2000/svg">
<path d="M34.0001 67.3332C15.599 67.313 0.686956 52.401 0.666748 33.9999V33.3332C1.03319 15.015 16.1154 0.426418 34.4357 0.669498C52.7559 0.912578 67.4457 15.8962 67.326 34.2177C67.2063 52.5392 52.322 67.3296 34.0001 67.3332ZM34.0001 7.33323C19.2725 7.33323 7.33342 19.2723 7.33342 33.9999C7.33342 48.7275 19.2725 60.6666 34.0001 60.6666C48.7277 60.6666 60.6668 48.7275 60.6668 33.9999C60.6502 19.2792 48.7208 7.34976 34.0001 7.33323ZM29.1667 50.6666L24.4534 45.9499L36.2367 34.1666L24.4534 22.3832L29.1667 17.6666L45.6668 34.1666L29.1701 50.6666H29.1667Z" fill="white" fill-opacity="0.7"/>
</svg>
