<svg width="68" height="68" viewBox="0 0 68 68" fill="none" xmlns="http://www.w3.org/2000/svg">
<path d="M34 67.3334C15.5905 67.3334 0.666687 52.4096 0.666687 34.0001C0.666687 15.5906 15.5905 0.666748 34 0.666748C52.4095 0.666748 67.3334 15.5906 67.3334 34.0001C67.3131 52.4012 52.4011 67.3132 34 67.3334ZM34 7.33342C19.3514 7.33712 7.44822 19.1563 7.34082 33.8046C7.23342 48.4528 18.962 60.4453 33.609 60.6638C48.256 60.8823 60.3371 49.245 60.6667 34.6001V40.5434V34.0001C60.6502 19.2793 48.7208 7.34995 34 7.33342ZM38.8334 50.3334L22.3334 33.8334L38.8334 17.3334L43.5467 22.0467L31.76 33.8334L43.5434 45.6201L38.8367 50.3334H38.8334Z" fill="white" fill-opacity="0.7"/>
</svg>
