<svg width="30" height="30" viewBox="0 0 30 30" fill="none" xmlns="http://www.w3.org/2000/svg">
<path d="M15 26.2499C14.1938 25.5349 13.2825 24.7912 12.3188 23.9999H12.3063C8.91253 21.2249 5.06628 18.0849 3.36753 14.3224C2.80943 13.1246 2.51366 11.8214 2.50001 10.4999C2.49629 8.6868 3.22349 6.94867 4.51729 5.6784C5.81109 4.40813 7.56226 3.71293 9.37503 3.74994C10.8508 3.75227 12.2948 4.17879 13.535 4.97869C14.08 5.3324 14.5731 5.76026 15 6.24994C15.4294 5.76218 15.9226 5.33458 16.4663 4.97869C17.706 4.17863 19.1496 3.75209 20.625 3.74994C22.4378 3.71293 24.189 4.40813 25.4828 5.6784C26.7766 6.94867 27.5038 8.6868 27.5 10.4999C27.4873 11.8235 27.1915 13.1289 26.6325 14.3287C24.9338 18.0912 21.0888 21.2299 17.695 23.9999L17.6825 24.0099C16.7175 24.7962 15.8075 25.5399 15.0013 26.2599L15 26.2499ZM9.37503 6.24994C8.21067 6.23537 7.08762 6.681 6.25003 7.48994C5.44301 8.28265 4.99197 9.36875 4.99992 10.4999C5.01419 11.4631 5.23231 12.4123 5.64003 13.2849C6.44192 14.9083 7.52392 16.3775 8.83628 17.6249C10.075 18.8749 11.5 20.0849 12.7325 21.1024C13.0738 21.3837 13.4213 21.6674 13.7688 21.9512L13.9875 22.1299C14.3213 22.4024 14.6663 22.6849 15 22.9624L15.0163 22.9474L15.0238 22.9412H15.0313L15.0425 22.9324H15.0488H15.055L15.0775 22.9137L15.1288 22.8724L15.1375 22.8649L15.1513 22.8549H15.1588L15.17 22.8449L16 22.1637L16.2175 21.9849C16.5688 21.6987 16.9163 21.4149 17.2575 21.1337C18.49 20.1162 19.9163 18.9074 21.155 17.6512C22.4676 16.4044 23.5496 14.9356 24.3513 13.3124C24.7664 12.4322 24.9876 11.4731 25.0001 10.4999C25.0052 9.37224 24.5544 8.29031 23.75 7.49994C22.9141 6.68734 21.7908 6.23804 20.625 6.24994C19.2024 6.23785 17.8425 6.83415 16.8875 7.88869L15 10.0637L13.1125 7.88869C12.1576 6.83415 10.7976 6.23785 9.37503 6.24994Z" fill="#616161"/>
</svg>
