<svg width="113" height="40" viewBox="0 0 113 40" fill="none" xmlns="http://www.w3.org/2000/svg">
<path d="M11.48 2C11.9659 2 12.4341 2.0637 12.8844 2.19111C13.3348 2.31555 13.7556 2.49185 14.1467 2.72C14.5378 2.94815 14.8933 3.2237 15.2133 3.54667C15.5363 3.86667 15.8119 4.22222 16.04 4.61333C16.2681 5.00444 16.4444 5.42519 16.5689 5.87556C16.6963 6.32593 16.76 6.79407 16.76 7.28V24.72C16.76 25.2059 16.6963 25.6741 16.5689 26.1244C16.4444 26.5748 16.2681 26.9956 16.04 27.3867C15.8119 27.7778 15.5363 28.1348 15.2133 28.4578C14.8933 28.7778 14.5378 29.0519 14.1467 29.28C13.7556 29.5081 13.3348 29.6859 12.8844 29.8133C12.4341 29.9378 11.9659 30 11.48 30H0.12C0.0785185 30 0.0474074 29.9837 0.0266667 29.9511C0.00888889 29.9185 0 29.8815 0 29.84V13.36C0 13.3185 0.00888889 13.2815 0.0266667 13.2489C0.0474074 13.2163 0.0785185 13.2 0.12 13.2H5.44C5.48148 13.2 5.51852 13.2163 5.55111 13.2489C5.5837 13.2815 5.6 13.3185 5.6 13.36V24.24C5.6 24.2815 5.60889 24.3185 5.62667 24.3511C5.64741 24.3837 5.67852 24.4 5.72 24.4H9.92C10.1007 24.4 10.2681 24.3674 10.4222 24.3022C10.5793 24.237 10.7156 24.1481 10.8311 24.0356C10.9467 23.923 11.037 23.7911 11.1022 23.64C11.1674 23.4889 11.2 23.3289 11.2 23.16V8.84C11.2 8.67111 11.1674 8.51407 11.1022 8.36889C11.037 8.22074 10.9467 8.09333 10.8311 7.98667C10.7156 7.87704 10.5793 7.79259 10.4222 7.73333C10.2681 7.67111 10.1007 7.64 9.92 7.64H0.12C0.0785185 7.64 0.0474074 7.62222 0.0266667 7.58667C0.00888889 7.54815 0 7.49926 0 7.44V2.16C0 2.11852 0.00888889 2.08148 0.0266667 2.04889C0.0474074 2.0163 0.0785185 2 0.12 2H11.48ZM35.55 24.7111C35.55 25.197 35.4863 25.6652 35.3589 26.1156C35.2344 26.5659 35.0567 26.9881 34.8256 27.3822C34.5974 27.7733 34.3219 28.1304 33.9989 28.4533C33.6789 28.7733 33.3219 29.0489 32.9278 29.28C32.5367 29.5081 32.1159 29.6859 31.6656 29.8133C31.2152 29.9378 30.747 30 30.2611 30H24.0389C23.553 30 23.0848 29.9378 22.6344 29.8133C22.1841 29.6859 21.7619 29.5081 21.3678 29.28C20.9767 29.0489 20.6196 28.7733 20.2967 28.4533C19.9767 28.1304 19.7011 27.7733 19.47 27.3822C19.2419 26.9881 19.0641 26.5659 18.9367 26.1156C18.8122 25.6652 18.75 25.197 18.75 24.7111V18.4889C18.75 18.003 18.8122 17.5348 18.9367 17.0844C19.0641 16.6341 19.2419 16.2133 19.47 15.8222C19.7011 15.4281 19.9767 15.0711 20.2967 14.7511C20.6196 14.4281 20.9767 14.1526 21.3678 13.9244C21.7619 13.6933 22.1841 13.5156 22.6344 13.3911C23.0848 13.2637 23.553 13.2 24.0389 13.2H30.2611C30.747 13.2 31.2152 13.2637 31.6656 13.3911C32.1159 13.5156 32.5367 13.6933 32.9278 13.9244C33.3219 14.1526 33.6789 14.4281 33.9989 14.7511C34.3219 15.0711 34.5974 15.4281 34.8256 15.8222C35.0567 16.2133 35.2344 16.6341 35.3589 17.0844C35.4863 17.5348 35.55 18.003 35.55 18.4889V24.7111ZM29.95 20.0444C29.95 19.8726 29.9174 19.7111 29.8522 19.56C29.787 19.4089 29.6981 19.277 29.5856 19.1644C29.473 19.0519 29.3411 18.963 29.19 18.8978C29.0389 18.8326 28.8774 18.8 28.7056 18.8H25.5944C25.4226 18.8 25.2611 18.8326 25.11 18.8978C24.9589 18.963 24.827 19.0519 24.7144 19.1644C24.6019 19.277 24.513 19.4089 24.4478 19.56C24.3826 19.7111 24.35 19.8726 24.35 20.0444V23.1556C24.35 23.3274 24.3826 23.4889 24.4478 23.64C24.513 23.7911 24.6019 23.923 24.7144 24.0356C24.827 24.1481 24.9589 24.237 25.11 24.3022C25.2611 24.3674 25.4226 24.4 25.5944 24.4H28.7056C28.8774 24.4 29.0389 24.3674 29.19 24.3022C29.3411 24.237 29.473 24.1481 29.5856 24.0356C29.6981 23.923 29.787 23.7911 29.8522 23.64C29.9174 23.4889 29.95 23.3274 29.95 23.1556V20.0444ZM54.1835 13.2C54.225 13.2 54.2605 13.2163 54.2902 13.2489C54.3228 13.2785 54.3391 13.3141 54.3391 13.3556V24.7111C54.3391 25.197 54.2754 25.6652 54.148 26.1156C54.0235 26.5659 53.8457 26.9881 53.6146 27.3822C53.3865 27.7733 53.1109 28.1304 52.788 28.4533C52.468 28.7733 52.1109 29.0489 51.7168 29.28C51.3257 29.5081 50.905 29.6859 50.4546 29.8133C50.0042 29.9378 49.5361 30 49.0502 30H42.828C42.342 30 41.8739 29.9378 41.4235 29.8133C40.9731 29.6859 40.5509 29.5081 40.1568 29.28C39.7657 29.0489 39.4087 28.7733 39.0857 28.4533C38.7657 28.1304 38.4902 27.7733 38.2591 27.3822C38.0309 26.9881 37.8531 26.5659 37.7257 26.1156C37.6013 25.6652 37.5391 25.197 37.5391 24.7111V13.3556C37.5391 13.3141 37.5539 13.2785 37.5835 13.2489C37.6131 13.2163 37.6502 13.2 37.6946 13.2H42.9835C43.028 13.2 43.065 13.2163 43.0946 13.2489C43.1242 13.2785 43.1391 13.3141 43.1391 13.3556V23.1556C43.1391 23.3274 43.1717 23.4889 43.2368 23.64C43.302 23.7911 43.3909 23.923 43.5035 24.0356C43.6161 24.1481 43.748 24.237 43.8991 24.3022C44.0502 24.3674 44.2117 24.4 44.3835 24.4H47.4946C47.6665 24.4 47.828 24.3674 47.9791 24.3022C48.1302 24.237 48.262 24.1481 48.3746 24.0356C48.4872 23.923 48.5761 23.7911 48.6413 23.64C48.7065 23.4889 48.7391 23.3274 48.7391 23.1556V13.3556C48.7391 13.3141 48.7539 13.2785 48.7835 13.2489C48.8131 13.2163 48.8502 13.2 48.8946 13.2H54.1835ZM56.4837 30C56.4392 30 56.4022 29.9852 56.3726 29.9556C56.3429 29.9259 56.3281 29.8889 56.3281 29.8444V24.5511C56.3281 24.5067 56.3429 24.4711 56.3726 24.4444C56.4022 24.4148 56.4392 24.4 56.4837 24.4H66.2926C66.4644 24.4 66.6259 24.3674 66.777 24.3022C66.9281 24.2341 67.0585 24.1437 67.1681 24.0311C67.2807 23.9185 67.3681 23.7867 67.4303 23.6356C67.4955 23.4815 67.5281 23.3185 67.5281 23.1467V20.0356C67.5281 19.8637 67.4955 19.7022 67.4303 19.5511C67.3681 19.4 67.2807 19.2696 67.1681 19.16C67.0585 19.0474 66.9281 18.96 66.777 18.8978C66.6259 18.8326 66.4644 18.8 66.2926 18.8H56.4837C56.4392 18.8 56.4022 18.7837 56.3726 18.7511C56.3429 18.7156 56.3281 18.677 56.3281 18.6356V2.13333C56.3281 2.08889 56.3429 2.0563 56.3726 2.03556C56.4022 2.01185 56.4392 2 56.4837 2H61.777C61.8215 2 61.857 2.01185 61.8837 2.03556C61.9133 2.0563 61.9281 2.08889 61.9281 2.13333V13.0267C61.9281 13.0711 61.9444 13.1111 61.977 13.1467C62.0096 13.1822 62.0466 13.2 62.0881 13.2H67.8481C68.3341 13.2 68.8022 13.2637 69.2526 13.3911C69.7029 13.5156 70.1237 13.6919 70.5148 13.92C70.9059 14.1481 71.2615 14.4237 71.5815 14.7467C71.9044 15.0667 72.18 15.4222 72.4081 15.8133C72.6363 16.2044 72.8126 16.6252 72.937 17.0756C73.0644 17.5259 73.1281 17.9941 73.1281 18.48V24.7067C73.1281 25.1926 73.0644 25.6607 72.937 26.1111C72.8126 26.5615 72.6363 26.9837 72.4081 27.3778C72.18 27.7689 71.9044 28.1259 71.5815 28.4489C71.2615 28.7719 70.9059 29.0489 70.5148 29.28C70.1237 29.5081 69.7029 29.6859 69.2526 29.8133C68.8022 29.9378 68.3341 30 67.8481 30H56.4837ZM80.5572 2C80.5987 2 80.6357 2.0163 80.6683 2.04889C80.7009 2.08148 80.7172 2.11852 80.7172 2.16V23.16C80.7172 23.3289 80.7498 23.4889 80.815 23.64C80.8802 23.7911 80.969 23.923 81.0816 24.0356C81.1942 24.1481 81.3261 24.237 81.4772 24.3022C81.6283 24.3674 81.7883 24.4 81.9572 24.4H86.1572C86.1987 24.4 86.2357 24.4163 86.2683 24.4489C86.3009 24.4815 86.3172 24.5185 86.3172 24.56V29.84C86.3172 29.8815 86.3009 29.9185 86.2683 29.9511C86.2357 29.9837 86.1987 30 86.1572 30H80.3972C79.9113 30 79.4431 29.9378 78.9927 29.8133C78.5424 29.6859 78.1216 29.5081 77.7305 29.28C77.3394 29.0519 76.9824 28.7778 76.6594 28.4578C76.3394 28.1348 76.0653 27.7778 75.8372 27.3867C75.609 26.9956 75.4313 26.5748 75.3039 26.1244C75.1794 25.6741 75.1172 25.2059 75.1172 24.72V2.16C75.1172 2.11852 75.1335 2.08148 75.1661 2.04889C75.1987 2.0163 75.2357 2 75.2772 2H80.5572ZM88.3203 18.4889C88.3203 18.003 88.3825 17.5348 88.507 17.0844C88.6344 16.6341 88.8122 16.2133 89.0403 15.8222C89.2714 15.4281 89.547 15.0711 89.867 14.7511C90.1899 14.4281 90.547 14.1526 90.9381 13.9244C91.3322 13.6933 91.7544 13.5156 92.2048 13.3911C92.6551 13.2637 93.1233 13.2 93.6092 13.2H99.8314C100.317 13.2 100.785 13.2637 101.236 13.3911C101.686 13.5156 102.107 13.6933 102.498 13.9244C102.892 14.1526 103.249 14.4281 103.569 14.7511C103.892 15.0711 104.168 15.4281 104.396 15.8222C104.627 16.2133 104.805 16.6341 104.929 17.0844C105.057 17.5348 105.12 18.003 105.12 18.4889V23C105.12 23.0415 105.105 23.0785 105.076 23.1111C105.046 23.1437 105.009 23.16 104.965 23.16H99.6759C99.6314 23.16 99.5944 23.1437 99.5648 23.1111C99.5351 23.0785 99.5203 23.0415 99.5203 23V20.0444C99.5203 19.8726 99.4877 19.7111 99.4225 19.56C99.3573 19.4089 99.2685 19.277 99.1559 19.1644C99.0433 19.0519 98.9114 18.963 98.7603 18.8978C98.6092 18.8326 98.4477 18.8 98.2759 18.8H95.1648C94.9929 18.8 94.8314 18.8326 94.6803 18.8978C94.5292 18.963 94.3973 19.0519 94.2848 19.1644C94.1722 19.277 94.0833 19.4089 94.0181 19.56C93.9529 19.7111 93.9203 19.8726 93.9203 20.0444V23.1556C93.9203 23.3274 93.9529 23.4889 94.0181 23.64C94.0833 23.7911 94.1722 23.923 94.2848 24.0356C94.3973 24.1481 94.5292 24.237 94.6803 24.3022C94.8314 24.3674 94.9929 24.4 95.1648 24.4H104.965C105.009 24.4 105.046 24.4148 105.076 24.4444C105.105 24.4741 105.12 24.5111 105.12 24.5556V29.8444C105.12 29.8859 105.105 29.923 105.076 29.9556C105.046 29.9852 105.009 30 104.965 30H93.6092C93.1233 30 92.6551 29.9378 92.2048 29.8133C91.7544 29.6859 91.3322 29.5081 90.9381 29.28C90.547 29.0489 90.1899 28.7733 89.867 28.4533C89.547 28.1304 89.2714 27.7733 89.0403 27.3822C88.8122 26.9881 88.6344 26.5659 88.507 26.1156C88.3825 25.6652 88.3203 25.197 88.3203 24.7111V18.4889Z" fill="white"/>
<path d="M111.56 13.93C111.56 13.95 111.553 13.9667 111.538 13.98C111.525 13.9933 111.509 14 111.49 14H106.38C106.161 14 105.951 13.972 105.748 13.916C105.545 13.8587 105.355 13.7787 105.178 13.676C105.002 13.572 104.841 13.448 104.696 13.304C104.552 13.1587 104.428 12.998 104.324 12.822C104.221 12.6447 104.141 12.4547 104.084 12.252C104.028 12.0493 104 11.8387 104 11.62V10.682C104 10.5247 104.015 10.37 104.046 10.218C104.077 10.0647 104.121 9.91667 104.18 9.774C104.24 9.63133 104.313 9.49533 104.398 9.366C104.485 9.23533 104.584 9.114 104.696 9.002L108.914 4.784C108.954 4.74133 108.985 4.69467 109.006 4.644C109.029 4.592 109.04 4.53733 109.04 4.48C109.04 4.40267 109.025 4.33 108.996 4.262C108.967 4.194 108.927 4.13467 108.876 4.084C108.825 4.03333 108.766 3.99333 108.698 3.964C108.63 3.93467 108.557 3.92 108.48 3.92H107.08C107.003 3.92 106.93 3.93467 106.862 3.964C106.794 3.99333 106.735 4.03333 106.684 4.084C106.633 4.13467 106.593 4.194 106.564 4.262C106.535 4.33 106.52 4.40267 106.52 4.48V5.532C106.52 5.55067 106.513 5.566 106.5 5.578C106.487 5.58867 106.47 5.594 106.45 5.594H104.07C104.05 5.594 104.033 5.58867 104.02 5.578C104.007 5.566 104 5.55067 104 5.532V3.78C104 3.56133 104.028 3.35067 104.084 3.148C104.141 2.94533 104.221 2.756 104.324 2.58C104.428 2.40267 104.552 2.242 104.696 2.098C104.841 1.95267 105.002 1.82867 105.178 1.726C105.355 1.622 105.545 1.542 105.748 1.486C105.951 1.42867 106.161 1.4 106.38 1.4H109.18C109.399 1.4 109.609 1.42867 109.812 1.486C110.015 1.542 110.204 1.622 110.38 1.726C110.557 1.82867 110.718 1.95267 110.862 2.098C111.007 2.242 111.131 2.40267 111.234 2.58C111.338 2.756 111.418 2.94533 111.474 3.148C111.531 3.35067 111.56 3.56133 111.56 3.78V4.718C111.56 4.87667 111.545 5.032 111.514 5.184C111.483 5.336 111.438 5.48333 111.378 5.626C111.319 5.76867 111.247 5.90533 111.16 6.036C111.075 6.16533 110.976 6.28667 110.864 6.4L106.646 10.616C106.605 10.6573 106.573 10.704 106.552 10.756C106.531 10.808 106.52 10.8627 106.52 10.92C106.52 10.9973 106.535 11.07 106.564 11.138C106.593 11.206 106.633 11.2653 106.684 11.316C106.735 11.3667 106.794 11.4067 106.862 11.436C106.93 11.4653 107.003 11.48 107.08 11.48H111.49C111.509 11.48 111.525 11.4867 111.538 11.5C111.553 11.5133 111.56 11.53 111.56 11.55V13.93Z" fill="white"/>
</svg>
