<svg width="30" height="30" viewBox="0 0 30 30" fill="none" xmlns="http://www.w3.org/2000/svg">
<path d="M23.8885 25.0001L16.5141 17.6248C13.2335 19.957 8.71308 19.3865 6.11486 16.3125C3.51663 13.2385 3.70741 8.6865 6.55375 5.84067C9.39933 2.99358 13.9521 2.80199 17.0268 5.39992C20.1016 7.99786 20.6724 12.5185 18.3399 15.7991L25.7143 23.1743L23.8898 24.9988L23.8885 25.0001ZM12.0275 6.1529C9.58055 6.15235 7.4695 7.86987 6.97243 10.2656C6.47537 12.6614 7.72889 15.0769 9.97408 16.0497C12.2193 17.0225 14.839 16.2853 16.2473 14.2844C17.6555 12.2834 17.4651 9.56871 15.7915 7.78383L16.5721 8.55801L15.6921 7.68061L15.6766 7.66513C14.7111 6.69377 13.397 6.14921 12.0275 6.1529Z" fill="white"/>
</svg>
