<svg width="25" height="25" viewBox="0 0 25 25" fill="none" xmlns="http://www.w3.org/2000/svg">
<path d="M24.3508 20.8957L22.6799 6.22047C22.6441 5.89467 22.292 5.64798 21.8802 5.64798H18.443C18.3952 3.19979 15.8292 1.22168 12.6784 1.22168C9.52754 1.22168 6.96152 3.19979 6.91378 5.64798H3.47651C3.05878 5.64798 2.71267 5.89467 2.67686 6.22047L1.00597 20.8957C1.00597 20.9143 1 20.9329 1 20.9516C1 22.6225 2.9633 23.9815 5.38014 23.9815H19.9766C22.3934 23.9815 24.3568 22.6225 24.3568 20.9516C24.3568 20.9329 24.3568 20.9143 24.3508 20.8957ZM12.6784 2.47836C14.9401 2.47836 16.784 3.89329 16.8318 5.64798H8.525C8.57274 3.89329 10.4167 2.47836 12.6784 2.47836ZM19.9766 22.7249H5.38014C3.86439 22.7249 2.63509 21.9429 2.61122 20.9795L4.21051 6.90932H6.90781V8.81761C6.90781 9.16669 7.26586 9.44595 7.71343 9.44595C8.16099 9.44595 8.51904 9.16669 8.51904 8.81761V6.90932H16.8318V8.81761C16.8318 9.16669 17.1898 9.44595 17.6374 9.44595C18.0849 9.44595 18.443 9.16669 18.443 8.81761V6.90932H21.1403L22.7455 20.9795C22.7217 21.9429 21.4864 22.7249 19.9766 22.7249Z" fill="white" stroke="white" stroke-width="1.2"/>
</svg>
