<svg width="30" height="30" viewBox="0 0 30 30" fill="none" xmlns="http://www.w3.org/2000/svg">
<path d="M8.80959 26.4287H5.71436C5.71436 21.3792 9.87171 17.2858 15.0001 17.2858C20.1284 17.2858 24.2858 21.3792 24.2858 26.4287H21.1905C21.1905 23.0624 18.419 20.3334 15.0001 20.3334C11.5812 20.3334 8.80959 23.0624 8.80959 26.4287ZM15.0001 15.762C11.5812 15.762 8.80959 13.0331 8.80959 9.66677C8.80959 6.30046 11.5812 3.57153 15.0001 3.57153C18.419 3.57153 21.1905 6.30046 21.1905 9.66677C21.1863 13.0313 18.4172 15.7578 15.0001 15.762ZM15.0001 6.61915C13.3091 6.62084 11.9325 7.95835 11.9083 9.6231C11.8841 11.2879 13.2212 12.6637 14.9114 12.713C16.6016 12.7624 18.0192 11.4671 18.0953 9.80391V10.4134V9.66677C18.0953 7.98362 16.7095 6.61915 15.0001 6.61915Z" fill="white"/>
</svg>
